<?xml version="1.0" standalone="no"?>
 <!DOCTYPE svg PUBLIC "-//W3C//DTD SVG 1.1//EN" 
 "http://www.w3.org/Graphics/SVG/1.1/DTD/svg11.dtd"> 
<svg
  xmlns:svg="http://www.w3.org/2000/svg"
  xmlns="http://www.w3.org/2000/svg"
  xmlns:xlink="http://www.w3.org/1999/xlink"
  version="1.1"
  width="55.8038mm" height="49.4284mm" viewBox="0.0000 0.0000 55.8038 49.4284">
<title>SVG Image created as 02-two-layer.svg date 2026/08/24 07:42:55 </title>
  <desc>Image generated by PCBNEW </desc>
<g style="fill:#000000; fill-opacity:1.0000;stroke:#000000; stroke-opacity:1.0000;
stroke-linecap:round; stroke-linejoin:round;"
 transform="translate(0 0) scale(1 1)">
<path style="fill:#C83434; fill-opacity:1.0000; stroke:none;fill-rule:evenodd;"
d="M 23.7064,10.5885
21.7064,10.5885
21.7064,8.5885
23.7064,8.5885
Z" /> 
</g>
<g style="fill:#C83434; fill-opacity:1.0000; stroke:none;">
<circle cx="22.7064" cy="4.5885" r="1.0000" /> 
</g>
<g style="fill:#C83434; fill-opacity:1.0000; stroke:none;">
<circle cx="18.2614" cy="34.9885" r="0.8000" /> 
</g>
<g style="fill:#C83434; fill-opacity:1.0000; stroke:none;">
<circle cx="18.2614" cy="29.9885" r="0.8000" /> 
</g>
<g style="fill:#C83434; fill-opacity:1.0000; stroke:none;">
<circle cx="6.1964" cy="3.8735" r="2.8000" /> 
</g>
<g style="fill:#C83434; fill-opacity:1.0000; stroke:none;">
<circle cx="50.6464" cy="3.8735" r="2.8000" /> 
</g>
<g style="fill:#C83434; fill-opacity:1.0000; stroke:none;">
<circle cx="50.6464" cy="42.6085" r="2.8000" /> 
</g>
<g style="fill:#C83434; fill-opacity:1.0000; stroke:none;">
<circle cx="17.3724" cy="17.8435" r="0.8000" /> 
</g>
<g style="fill:#C83434; fill-opacity:1.0000; stroke:none;">
<circle cx="17.3724" cy="25.4635" r="0.8000" /> 
<circle cx="37.3114" cy="5.7785" r="0.8000" /> 
</g>
<g style="fill:#C83434; fill-opacity:1.0000; stroke:none;">
<circle cx="29.6914" cy="5.7785" r="0.8000" /> 
<circle cx="45.5664" cy="27.3685" r="0.8000" /> 
</g>
<g style="fill:#C83434; fill-opacity:1.0000; stroke:none;">
<circle cx="45.5664" cy="34.9885" r="0.8000" /> 
<path style="fill:#C83434; fill-opacity:1.0000; stroke:none;fill-rule:evenodd;"
d="M 7.8714,21.1695
10.8714,21.1695
10.8714,24.1695
7.8714,24.1695
Z" /> 
<circle cx="9.3714" cy="27.6695" r="1.5000" /> 
<path style="fill:#C83434; fill-opacity:1.0000; stroke:none;fill-rule:evenodd;"
d="M 7.8714,9.1045
10.8714,9.1045
10.8714,12.1045
7.8714,12.1045
Z" /> 
</g>
<g style="fill:#C83434; fill-opacity:1.0000; stroke:none;">
<circle cx="9.3714" cy="15.6045" r="1.5000" /> 
<path style="fill:#C83434; fill-opacity:1.0000; stroke:none;fill-rule:evenodd;"
d="M 25.1434,42.5845
25.1434,39.5845
28.1434,39.5845
28.1434,42.5845
Z" /> 
</g>
<g style="fill:#C83434; fill-opacity:1.0000; stroke:none;">
<circle cx="31.6434" cy="41.0845" r="1.5000" /> 
</g>
<g style="fill:#C83434; fill-opacity:1.0000; stroke:none;">
<circle cx="15.0864" cy="34.9885" r="0.8000" /> 
</g>
<g style="fill:#C83434; fill-opacity:1.0000; stroke:none;">
<circle cx="7.4664" cy="34.9885" r="0.8000" /> 
<circle cx="33.7764" cy="28.3585" r="1.0150" /> 
</g>
<g style="fill:#C83434; fill-opacity:1.0000; stroke:none;">
<circle cx="35.9264" cy="25.4285" r="1.0150" /> 
</g>
<g style="fill:#C83434; fill-opacity:1.0000; stroke:none;">
<circle cx="35.9264" cy="21.7785" r="1.0150" /> 
</g>
<g style="fill:#C83434; fill-opacity:1.0000; stroke:none;">
<circle cx="33.7764" cy="18.8485" r="1.0150" /> 
</g>
<g style="fill:#C83434; fill-opacity:1.0000; stroke:none;">
<circle cx="30.3264" cy="17.7085" r="1.0150" /> 
</g>
<g style="fill:#C83434; fill-opacity:1.0000; stroke:none;">
<circle cx="26.8664" cy="18.8485" r="1.0150" /> 
</g>
<g style="fill:#C83434; fill-opacity:1.0000; stroke:none;">
<circle cx="24.7164" cy="21.7785" r="1.0150" /> 
</g>
<g style="fill:#C83434; fill-opacity:1.0000; stroke:none;">
<circle cx="24.7164" cy="25.3885" r="1.0150" /> 
</g>
<g style="fill:#C83434; fill-opacity:1.0000; stroke:none;">
<circle cx="26.8664" cy="28.3585" r="1.0150" /> 
<path style="fill:#C83434; fill-opacity:1.0000; stroke:none;fill-rule:evenodd;"
d="M 48.9714,16.8035
45.9714,16.8035
45.9714,13.8035
48.9714,13.8035
Z" /> 
</g>
<g style="fill:#C83434; fill-opacity:1.0000; stroke:none;">
<circle cx="47.4714" cy="10.3035" r="1.5000" /> 
</g>
<g style="fill:#C83434; fill-opacity:1.0000; stroke:none;">
<circle cx="6.1964" cy="42.6085" r="2.8000" /> 
</g>
<g style="fill:none; 
stroke:#C83434; stroke-width:0.8000; stroke-opacity:1; 
stroke-linecap:round; stroke-linejoin:round;">
<path d="M31.6434 41.0845
L31.9279 28.3173
" />
<path d="M31.9627 27.9990 A1.8490 1.8490 0.0 0 0 31.9279 28.3173" />
<path d="M31.9627 27.9990
L33.7764 18.8485
" />
<path d="M29.6914 5.7785
L47.4714 15.3035
" />
<path d="M47.4714 15.3035
L47.2000 27.4051
" />
<path d="M47.1624 27.7189 A1.6339 1.6339 0.0 0 0 47.2000 27.4051" />
<path d="M47.1624 27.7189
L45.5664 34.9885
" />
<path d="M22.7064 4.5885
L9.3714 15.6045
" />
<path d="M15.0864 34.9885
L11.5130 26.7415
" />
<path d="M11.5130 26.7415
L11.4355 26.5800
" />
<path d="M11.4355 26.5800
L9.3714 22.6695
" />
<path d="M26.6434 41.0845
L26.8664 28.3585
" />
<path d="M9.3714 15.6045
L7.1060 20.8382
" />
<path d="M7.1060 20.8382 A0.8340 0.8340 0.0 0 0 7.0374 21.1695" />
<path d="M7.0374 21.1695
L7.0374 24.1695
" />
<path d="M7.0374 24.1695 A0.8340 0.8340 0.0 0 0 7.1954 24.6579" />
<path d="M7.1954 24.6579
L9.3714 27.6695
" />
<path d="M22.7064 9.5885
L26.8664 18.8485
" />
<path d="M45.5664 27.3685
L35.9264 25.4285
" />
<path d="M17.3724 17.8435
L24.7164 21.7785
" />
<path d="M9.3714 27.6695
L7.4664 34.9885
" />
<path d="M17.3724 25.4635
L24.7164 25.3885
" />
<path d="M22.7064 4.5885
L29.6914 5.7785
" />
<path d="M18.2614 29.9885
L17.3724 25.4635
" />
<path d="M33.7764 18.8485
L30.3264 17.7085
" />
<path d="M18.2614 34.9885
L15.0864 34.9885
" />
<path style="fill:#4D7FC4; fill-opacity:1.0000; stroke:none;fill-rule:evenodd;"
d="M 23.7064,10.5885
21.7064,10.5885
21.7064,8.5885
23.7064,8.5885
Z" /> 
</g>
<g style="fill:#4D7FC4; fill-opacity:1.0000; stroke:none;">
<circle cx="22.7064" cy="4.5885" r="1.0000" /> 
</g>
<g style="fill:#4D7FC4; fill-opacity:1.0000; stroke:none;">
<circle cx="18.2614" cy="34.9885" r="0.8000" /> 
</g>
<g style="fill:#4D7FC4; fill-opacity:1.0000; stroke:none;">
<circle cx="18.2614" cy="29.9885" r="0.8000" /> 
</g>
<g style="fill:#4D7FC4; fill-opacity:1.0000; stroke:none;">
<circle cx="6.1964" cy="3.8735" r="2.8000" /> 
</g>
<g style="fill:#4D7FC4; fill-opacity:1.0000; stroke:none;">
<circle cx="50.6464" cy="3.8735" r="2.8000" /> 
</g>
<g style="fill:#4D7FC4; fill-opacity:1.0000; stroke:none;">
<circle cx="50.6464" cy="42.6085" r="2.8000" /> 
</g>
<g style="fill:#4D7FC4; fill-opacity:1.0000; stroke:none;">
<circle cx="17.3724" cy="17.8435" r="0.8000" /> 
</g>
<g style="fill:#4D7FC4; fill-opacity:1.0000; stroke:none;">
<circle cx="17.3724" cy="25.4635" r="0.8000" /> 
<circle cx="37.3114" cy="5.7785" r="0.8000" /> 
</g>
<g style="fill:#4D7FC4; fill-opacity:1.0000; stroke:none;">
<circle cx="29.6914" cy="5.7785" r="0.8000" /> 
<circle cx="45.5664" cy="27.3685" r="0.8000" /> 
</g>
<g style="fill:#4D7FC4; fill-opacity:1.0000; stroke:none;">
<circle cx="45.5664" cy="34.9885" r="0.8000" /> 
<path style="fill:#4D7FC4; fill-opacity:1.0000; stroke:none;fill-rule:evenodd;"
d="M 7.8714,21.1695
10.8714,21.1695
10.8714,24.1695
7.8714,24.1695
Z" /> 
<circle cx="9.3714" cy="27.6695" r="1.5000" /> 
<path style="fill:#4D7FC4; fill-opacity:1.0000; stroke:none;fill-rule:evenodd;"
d="M 7.8714,9.1045
10.8714,9.1045
10.8714,12.1045
7.8714,12.1045
Z" /> 
</g>
<g style="fill:#4D7FC4; fill-opacity:1.0000; stroke:none;">
<circle cx="9.3714" cy="15.6045" r="1.5000" /> 
<path style="fill:#4D7FC4; fill-opacity:1.0000; stroke:none;fill-rule:evenodd;"
d="M 25.1434,42.5845
25.1434,39.5845
28.1434,39.5845
28.1434,42.5845
Z" /> 
</g>
<g style="fill:#4D7FC4; fill-opacity:1.0000; stroke:none;">
<circle cx="31.6434" cy="41.0845" r="1.5000" /> 
</g>
<g style="fill:#4D7FC4; fill-opacity:1.0000; stroke:none;">
<circle cx="15.0864" cy="34.9885" r="0.8000" /> 
</g>
<g style="fill:#4D7FC4; fill-opacity:1.0000; stroke:none;">
<circle cx="7.4664" cy="34.9885" r="0.8000" /> 
<circle cx="33.7764" cy="28.3585" r="1.0150" /> 
</g>
<g style="fill:#4D7FC4; fill-opacity:1.0000; stroke:none;">
<circle cx="35.9264" cy="25.4285" r="1.0150" /> 
</g>
<g style="fill:#4D7FC4; fill-opacity:1.0000; stroke:none;">
<circle cx="35.9264" cy="21.7785" r="1.0150" /> 
</g>
<g style="fill:#4D7FC4; fill-opacity:1.0000; stroke:none;">
<circle cx="33.7764" cy="18.8485" r="1.0150" /> 
</g>
<g style="fill:#4D7FC4; fill-opacity:1.0000; stroke:none;">
<circle cx="30.3264" cy="17.7085" r="1.0150" /> 
</g>
<g style="fill:#4D7FC4; fill-opacity:1.0000; stroke:none;">
<circle cx="26.8664" cy="18.8485" r="1.0150" /> 
</g>
<g style="fill:#4D7FC4; fill-opacity:1.0000; stroke:none;">
<circle cx="24.7164" cy="21.7785" r="1.0150" /> 
</g>
<g style="fill:#4D7FC4; fill-opacity:1.0000; stroke:none;">
<circle cx="24.7164" cy="25.3885" r="1.0150" /> 
</g>
<g style="fill:#4D7FC4; fill-opacity:1.0000; stroke:none;">
<circle cx="26.8664" cy="28.3585" r="1.0150" /> 
<path style="fill:#4D7FC4; fill-opacity:1.0000; stroke:none;fill-rule:evenodd;"
d="M 48.9714,16.8035
45.9714,16.8035
45.9714,13.8035
48.9714,13.8035
Z" /> 
</g>
<g style="fill:#4D7FC4; fill-opacity:1.0000; stroke:none;">
<circle cx="47.4714" cy="10.3035" r="1.5000" /> 
</g>
<g style="fill:#4D7FC4; fill-opacity:1.0000; stroke:none;">
<circle cx="6.1964" cy="42.6085" r="2.8000" /> 
</g>
<g style="fill:none; 
stroke:#4D7FC4; stroke-width:0.8000; stroke-opacity:1; 
stroke-linecap:round; stroke-linejoin:round;">
<path d="M45.5664 27.3685
L45.1381 16.8374
" />
<path d="M45.1381 16.8374
L45.1374 16.8035
" />
<path d="M45.1374 16.8035
L45.1374 13.8035
" />
<path d="M45.2954 13.3151 A0.8340 0.8340 0.0 0 0 45.1374 13.8035" />
<path d="M45.2954 13.3151
L47.4714 10.3035
" />
<path d="M37.3114 5.7785
L35.9264 21.7785
" />
<path d="M22.7064 9.5885
L9.3714 10.6045
" />
<path d="M24.7164 21.7785
L33.7764 28.3585
" />
</g>
<g style="fill:none; 
stroke:#D0D2CD; stroke-width:0.1270; stroke-opacity:1; 
stroke-linecap:round; stroke-linejoin:round;">
<path d="M54.4564 0.0635
L54.4564 46.4185
" />
<path d="M2.3864 0.0635
L2.3864 46.4185
" />
<path d="M54.4564 0.0635
L2.3864 0.0635
" />
<path d="M2.3864 46.4185
L54.4564 46.4185
" />
</g>
<g style="fill:#FFFFFF; fill-opacity:1.0000; stroke:none;">
<circle cx="22.7064" cy="9.5885" r="0.5000" /> 
</g>
<g style="fill:#FFFFFF; fill-opacity:1.0000; stroke:none;">
<circle cx="22.7064" cy="4.5885" r="0.5000" /> 
</g>
<g style="fill:#FFFFFF; fill-opacity:1.0000; stroke:none;">
<circle cx="18.2614" cy="34.9885" r="0.4000" /> 
</g>
<g style="fill:#FFFFFF; fill-opacity:1.0000; stroke:none;">
<circle cx="18.2614" cy="29.9885" r="0.4000" /> 
</g>
<g style="fill:#FFFFFF; fill-opacity:1.0000; stroke:none;">
<circle cx="6.1964" cy="3.8735" r="1.6000" /> 
</g>
<g style="fill:#FFFFFF; fill-opacity:1.0000; stroke:none;">
<circle cx="50.6464" cy="3.8735" r="1.6000" /> 
</g>
<g style="fill:#FFFFFF; fill-opacity:1.0000; stroke:none;">
<circle cx="50.6464" cy="42.6085" r="1.6000" /> 
</g>
<g style="fill:#FFFFFF; fill-opacity:1.0000; stroke:none;">
<circle cx="17.3724" cy="17.8435" r="0.4000" /> 
</g>
<g style="fill:#FFFFFF; fill-opacity:1.0000; stroke:none;">
<circle cx="17.3724" cy="25.4635" r="0.4000" /> 
</g>
<g style="fill:#FFFFFF; fill-opacity:1.0000; stroke:none;">
<circle cx="37.3114" cy="5.7785" r="0.4000" /> 
</g>
<g style="fill:#FFFFFF; fill-opacity:1.0000; stroke:none;">
<circle cx="29.6914" cy="5.7785" r="0.4000" /> 
</g>
<g style="fill:#FFFFFF; fill-opacity:1.0000; stroke:none;">
<circle cx="45.5664" cy="27.3685" r="0.4000" /> 
</g>
<g style="fill:#FFFFFF; fill-opacity:1.0000; stroke:none;">
<circle cx="45.5664" cy="34.9885" r="0.4000" /> 
</g>
<g style="fill:#FFFFFF; fill-opacity:1.0000; stroke:none;">
<circle cx="9.3714" cy="22.6695" r="0.7500" /> 
</g>
<g style="fill:#FFFFFF; fill-opacity:1.0000; stroke:none;">
<circle cx="9.3714" cy="27.6695" r="0.7500" /> 
</g>
<g style="fill:#FFFFFF; fill-opacity:1.0000; stroke:none;">
<circle cx="9.3714" cy="10.6045" r="0.7500" /> 
</g>
<g style="fill:#FFFFFF; fill-opacity:1.0000; stroke:none;">
<circle cx="9.3714" cy="15.6045" r="0.7500" /> 
</g>
<g style="fill:#FFFFFF; fill-opacity:1.0000; stroke:none;">
<circle cx="26.6434" cy="41.0845" r="0.7500" /> 
</g>
<g style="fill:#FFFFFF; fill-opacity:1.0000; stroke:none;">
<circle cx="31.6434" cy="41.0845" r="0.7500" /> 
</g>
<g style="fill:#FFFFFF; fill-opacity:1.0000; stroke:none;">
<circle cx="15.0864" cy="34.9885" r="0.4000" /> 
</g>
<g style="fill:#FFFFFF; fill-opacity:1.0000; stroke:none;">
<circle cx="7.4664" cy="34.9885" r="0.4000" /> 
</g>
<g style="fill:#FFFFFF; fill-opacity:1.0000; stroke:none;">
<circle cx="33.7764" cy="28.3585" r="0.5100" /> 
</g>
<g style="fill:#FFFFFF; fill-opacity:1.0000; stroke:none;">
<circle cx="35.9264" cy="25.4285" r="0.5100" /> 
</g>
<g style="fill:#FFFFFF; fill-opacity:1.0000; stroke:none;">
<circle cx="35.9264" cy="21.7785" r="0.5100" /> 
</g>
<g style="fill:#FFFFFF; fill-opacity:1.0000; stroke:none;">
<circle cx="33.7764" cy="18.8485" r="0.5100" /> 
</g>
<g style="fill:#FFFFFF; fill-opacity:1.0000; stroke:none;">
<circle cx="30.3264" cy="17.7085" r="0.5100" /> 
</g>
<g style="fill:#FFFFFF; fill-opacity:1.0000; stroke:none;">
<circle cx="26.8664" cy="18.8485" r="0.5100" /> 
</g>
<g style="fill:#FFFFFF; fill-opacity:1.0000; stroke:none;">
<circle cx="24.7164" cy="21.7785" r="0.5100" /> 
</g>
<g style="fill:#FFFFFF; fill-opacity:1.0000; stroke:none;">
<circle cx="24.7164" cy="25.3885" r="0.5100" /> 
</g>
<g style="fill:#FFFFFF; fill-opacity:1.0000; stroke:none;">
<circle cx="26.8664" cy="28.3585" r="0.5100" /> 
</g>
<g style="fill:#FFFFFF; fill-opacity:1.0000; stroke:none;">
<circle cx="47.4714" cy="15.3035" r="0.7500" /> 
</g>
<g style="fill:#FFFFFF; fill-opacity:1.0000; stroke:none;">
<circle cx="47.4714" cy="10.3035" r="0.7500" /> 
</g>
<g style="fill:#FFFFFF; fill-opacity:1.0000; stroke:none;">
<circle cx="6.1964" cy="42.6085" r="1.6000" /> 
</g> 
</svg>
